<svg id="visual" viewBox="0 0 900 600" width="900" height="600" xmlns="http://www.w3.org/2000/svg" xmlns:xlink="http://www.w3.org/1999/xlink" version="1.1"><rect x="0" y="0" width="900" height="600" fill="#001233"></rect><path d="M565 600L571.5 587.5C578 575 591 550 592.3 525C593.7 500 583.3 475 580 450C576.7 425 580.3 400 579.7 375C579 350 574 325 579.8 300C585.7 275 602.3 250 608.5 225C614.7 200 610.3 175 609.5 150C608.7 125 611.3 100 613.5 75C615.7 50 617.3 25 618.2 12.5L619 0L900 0L900 12.5C900 25 900 50 900 75C900 100 900 125 900 150C900 175 900 200 900 225C900 250 900 275 900 300C900 325 900 350 900 375C900 400 900 425 900 450C900 475 900 500 900 525C900 550 900 575 900 587.5L900 600Z" fill="#ff918e"></path><path d="M636 600L636.8 587.5C637.7 575 639.3 550 644 525C648.7 500 656.3 475 663.3 450C670.3 425 676.7 400 677.3 375C678 350 673 325 664.8 300C656.7 275 645.3 250 638 225C630.7 200 627.3 175 633 150C638.7 125 653.3 100 658.3 75C663.3 50 658.7 25 656.3 12.5L654 0L900 0L900 12.5C900 25 900 50 900 75C900 100 900 125 900 150C900 175 900 200 900 225C900 250 900 275 900 300C900 325 900 350 900 375C900 400 900 425 900 450C900 475 900 500 900 525C900 550 900 575 900 587.5L900 600Z" fill="#ff6d6b"></path><path d="M732 600L728 587.5C724 575 716 550 720 525C724 500 740 475 749.5 450C759 425 762 400 754.7 375C747.3 350 729.7 325 720.5 300C711.3 275 710.7 250 714.8 225C719 200 728 175 736.2 150C744.3 125 751.7 100 746.5 75C741.3 50 723.7 25 714.8 12.5L706 0L900 0L900 12.5C900 25 900 50 900 75C900 100 900 125 900 150C900 175 900 200 900 225C900 250 900 275 900 300C900 325 900 350 900 375C900 400 900 425 900 450C900 475 900 500 900 525C900 550 900 575 900 587.5L900 600Z" fill="#eb4f4f"></path><path d="M794 600L797.5 587.5C801 575 808 550 811 525C814 500 813 475 809.2 450C805.3 425 798.7 400 795.8 375C793 350 794 325 801.5 300C809 275 823 250 824.8 225C826.7 200 816.3 175 808.5 150C800.7 125 795.3 100 794.5 75C793.7 50 797.3 25 799.2 12.5L801 0L900 0L900 12.5C900 25 900 50 900 75C900 100 900 125 900 150C900 175 900 200 900 225C900 250 900 275 900 300C900 325 900 350 900 375C900 400 900 425 900 450C900 475 900 500 900 525C900 550 900 575 900 587.5L900 600Z" fill="#c33b3b"></path></svg>