<svg width="76" height="84" viewBox="0 0 76 84" fill="none" xmlns="http://www.w3.org/2000/svg">
<path d="M5.76091 23.9206L38 5.74023L70.2391 23.9206V60.0794L38 78.2598L5.76091 60.0794V23.9206Z" stroke="white" stroke-width="10"/>
<path d="M30.96 55C30.7467 55 30.64 54.9067 30.64 54.72L30.6 27.48C30.6 27.2667 30.7067 27.16 30.92 27.16H34.52L41.28 42.92L41.08 27.48C41.08 27.2667 41.2 27.16 41.44 27.16H45.4C45.56 27.16 45.64 27.2667 45.64 27.48L45.68 54.76C45.68 54.92 45.6133 55 45.48 55H41.96L35.04 40.28L35.32 54.68C35.32 54.8933 35.2 55 34.96 55H30.96Z" fill="white"/>
</svg>
